<?xml version="1.0" encoding="UTF-8"?>
<svg viewBox="0 0 640 480" xmlns="http://www.w3.org/2000/svg">
 <path d="m569.76 432.51l148.02-24.658-93.287-123.69c-48.356 43.036-54.37 94.696-54.732 148.35zm-40.718 9.0499c-0.23834-5.3608-1.082-13.981-1.082-20.017 0-61.206 19.397-120.69 72.043-170.12l-54.828-67.009-84.865 264.26 68.732-7.1192zm-325.73-263.01l4.7043-14.706 302.27-0.4037-80.409 248.81-3.4704-25.956h9.2515l-1.1614-16.518h-40.456l1.1579 15.339h10.404l2.3107 28.318s-203.44-233.71-204.6-234.88zm-133.87 239.01c40.592-32.911 72.187-64.276 94.972-127.05 35.962 33.299 56.48 81.463 56.48 131.02 0 98.419-78.646 178.69-175.07 178.69-96.422 0-175.06-80.274-175.06-178.69 0-98.423 78.642-178.7 175.06-178.7 30.774 0 62.232 9.0724 87.598 24.356-17.171 55.38-33.872 83.943-86.702 127.35-12.825 0.55212-22.575 11.062-22.575 23.597 0 13 10.384 23.599 23.116 23.599 12.734 0 22.182-10.599 22.182-24.187zm506.52 52.912c19.8 75.316 90.239 129.76 168.2 129.76 96.424 0 175.07-80.274 175.07-178.7 0-98.423-78.648-178.7-175.07-178.7-30.776 0-66.382 7.4158-92.36 22.938l95.022 128.78c11.621 0.1864 21.74 10.786 21.74 23.597 0 13-10.389 23.599-23.12 23.599-3.5245 0-7.2247-0.92139-10.35-2.4242l-159.13 31.149zm-430.04-244.64l62.016-174.63-19.651-34.221 39.302-43.654h84.381l1.1579 24.777h-73.98l-15.028 16.518 17.338 31.857-21.803 78.88h302.83l4.6249-14.426c-24.338-3.2334-66.316-18.54-76.342-27.426-10.026-8.8912-1.2476-17.066 10.173-17.45 59.771-2.5915 148.57-7.7024 165.44-7.7765 16.865-0.079468 18.594 8.5806 7.3024 21.188-11.292 12.606-21.162 23.958-63.943 30.723l-11.557 31.857 71.658 90.617c33.777-20.931 74.628-31.82 114.32-31.82 119.08 0 216.2 99.137 216.2 220.69s-97.123 220.69-216.2 220.69c-97.967 0-184.11-68.962-209.43-164.28l-65.848 12.078c-2.8196 7.9232-9.3884 14-17.237 18.756l11.745 56.858h15.026l1.1562 15.339-47.392 2.357v-16.518h11.561l-14.316-56.826c-21.304-3.556-32.466-22.17-26.122-40.644l-215.11-248.32-9.6301 26.644c52.206 41.973 83.455 106.63 83.455 173.87 0 121.55-97.124 220.69-216.21 220.69-119.08 0-216.2-99.135-216.2-220.69 0-121.55 97.124-220.69 216.2-220.69 34.628 0 70.099 8.6256 100.1 24.988z" fill="#00007f" fill-rule="evenodd"/>
</svg>
